<svg xmlns="http://www.w3.org/2000/svg" width="480" height="480"><style>.a{fill:#f92673;stroke-width:6;stroke:#000;}</style><desc>  Created with Raphaël 2.0.1</desc><title>  background</title><rect id="canvas_background" height="482" width="482" y="-1" x="-1" fill="none"/><title>  Layer 1</title><rect id="svg_1" height="480" width="500" stroke="null"/><ellipse id="svg_2" ry="35.3" rx="25" cy="229" cx="163" class="a"/><ellipse id="svg_4" transform="matrix(0.998 0.0628 -0.0628 0.998 -2.2593 -40.1081)" ry="45.1" rx="32" cy="-56" cx="637" class="a"/><ellipse id="svg_5" transform="matrix(0.9956 0.0941 -0.0941 0.9956 31.9875 -38.2935)" ry="57.8" rx="41" cy="320" cx="422" class="a"/><ellipse id="svg_6" transform="matrix(0.9921 0.1253 -0.1253 0.9921 36.7189 -45.6308)" ry="25.4" rx="18" cy="269" cx="381" class="a"/><ellipse id="svg_8" transform="matrix(0.9823 0.1874 -0.1874 0.9823 82.7032 -34.9088)" ry="84.6" rx="60" cy="420" cx="226" class="a"/><ellipse id="svg_11" transform="matrix(0.9603 0.279 -0.279 0.9603 98.1286 20.5125)" ry="26.8" rx="19" cy="355" cx="-23" class="a"/><ellipse id="svg_12" transform="matrix(0.9511 0.309 -0.309 0.9511 154.2925 -34.1647)" ry="42.3" rx="30" cy="470" cx="185" class="a"/><ellipse id="svg_13" transform="matrix(0.9409 0.3387 -0.3387 0.9409 73.4486 -112.8413)" ry="55" rx="39" cy="154" cx="360" class="a"/><ellipse id="svg_15" transform="matrix(0.9178 0.3971 -0.3971 0.9178 149.8745 -37.7164)" ry="59.2" rx="42" cy="343" cx="166" class="a"/><ellipse id="svg_16" transform="matrix(0.9048 0.4258 -0.4258 0.9048 242.5485 -95.0997)" ry="28.2" rx="20" cy="495" cx="334" class="a"/><ellipse id="svg_17" transform="matrix(0.891 0.454 -0.454 0.891 208.813 -133.7688)" ry="45.1" rx="32" cy="368" cx="383" class="a"/><ellipse id="svg_18" transform="matrix(0.8763 0.4818 -0.4818 0.8763 39.1261 -158.3863)" ry="32.4" rx="23" cy="-3" cx="328" class="a"/><ellipse id="svg_21" transform="matrix(0.8271 0.5621 -0.5621 0.8271 288.3043 62.8522)" ry="18.3" rx="13" cy="390.9" cx="47.7" class="a"/><ellipse id="svg_23" transform="matrix(0.7902 0.6129 -0.6129 0.7902 233.9941 -155.4409)" ry="50.8" rx="36" cy="264" cx="344" class="a"/><ellipse id="svg_24" transform="matrix(0.7705 0.6374 -0.6374 0.7705 315.6069 -168.6319)" ry="59.2" rx="42" cy="354" cx="392" class="a"/><ellipse id="svg_27" transform="matrix(0.7071 0.7071 -0.7071 0.7071 147.1766 -145.3158)" ry="38.1" rx="27" cy="105" cx="249" class="a"/><ellipse id="svg_29" transform="matrix(0.6613 0.7501 -0.7501 0.6613 119.9706 -235.7053)" ry="74.7" rx="53" cy="396.1" cx="491.6" class="a"/><ellipse id="svg_30" transform="matrix(0.6374 0.7705 -0.7705 0.6374 502.0921 -303.0001)" ry="71.9" rx="51" cy="356.8" cx="329.1" class="a"/><ellipse id="svg_31" transform="matrix(0.6129 0.7902 -0.7902 0.6129 86.2138 -237.9842)" ry="29.6" rx="21" cy="-31" cx="286" class="a"/><ellipse id="svg_32" transform="matrix(0.5878 0.809 -0.809 0.5878 226.3325 -180.2026)" ry="81.8" rx="58" cy="132" cx="290" class="a"/><ellipse id="svg_33" transform="matrix(0.5621 0.8271 -0.8271 0.5621 251.1734 -556.384)" ry="18.3" rx="13" cy="-41" cx="651" class="a"/><ellipse id="svg_35" transform="matrix(0.509 0.8607 -0.8607 0.509 407.1002 -277.7227)" ry="19.7" rx="14" cy="218" cx="447" class="a"/><ellipse id="svg_36" transform="matrix(0.4818 0.8763 -0.8763 0.4818 137.1186 -293.8549)" ry="49.4" rx="35" cy="-31" cx="317" class="a"/><ellipse id="svg_38" transform="matrix(0.4258 0.9048 -0.9048 0.4258 241.2244 -206.1089)" ry="81.8" rx="58" cy="87" cx="283" class="a"/><ellipse id="svg_39" transform="matrix(0.3971 0.9178 -0.9178 0.3971 300.6161 -443.6443)" ry="39.5" rx="28" cy="325.7" cx="443.8" class="a"/><ellipse id="svg_40" transform="matrix(0.3681 0.9298 -0.9298 0.3681 91.4136 -216.5111)" ry="77.6" rx="55" cy="-41" cx="205" class="a"/><ellipse id="svg_41" transform="matrix(0.3387 0.9409 -0.9409 0.3387 327.3927 -351.8327)" ry="26.8" rx="19" cy="57" cx="414" class="a"/><ellipse id="svg_42" transform="matrix(0.309 0.9511 -0.9511 0.309 322.5613 12.0325)" ry="56.4" rx="40" cy="228" cx="153" class="a"/><ellipse id="svg_43" transform="matrix(0.279 0.9603 -0.9603 0.279 464.8552 -247.1289)" ry="73.3" rx="52" cy="186" cx="397" class="a"/><ellipse id="svg_44" transform="matrix(0.2487 0.9686 -0.9686 0.2487 694.3416 108.8601)" ry="52.2" rx="37" cy="502" cx="277" class="a"/><ellipse id="svg_45" transform="matrix(0.2181 0.9759 -0.9759 0.2181 328.4192 -465.9341)" ry="62" rx="44" cy="382.6" cx="614.3" class="a"/><ellipse id="svg_48" transform="matrix(0.1253 0.9921 -0.9921 0.1253 -57.5952 -36.6711)" ry="40.9" rx="29" cy="-51" cx="-8" class="a"/><ellipse id="svg_50" transform="matrix(0.0628 0.998 -0.998 0.0628 1011.8167 -257.4753)" ry="76.1" rx="54" cy="652.3" cx="576.6" class="a"/><ellipse id="svg_51" transform="matrix(0.0314 0.9995 -0.9995 0.0314 742.0441 -69.7301)" ry="31" rx="22" cy="348" cx="407" class="a"/><ellipse id="svg_57" transform="matrix(-0.1564 0.9877 -0.9877 -0.1564 442.9353 169.6975)" ry="55" rx="39" cy="274" cx="149" class="a"/><ellipse id="svg_58" transform="matrix(-0.1874 0.9823 -0.9823 -0.1874 665.9156 -108.8933)" ry="47.9" rx="34" cy="221" cx="378" class="a"/><ellipse id="svg_59" transform="matrix(-0.2181 0.9759 -0.9759 -0.2181 1308.0391 -9.9369)" ry="24" rx="17" cy="519" cx="658" class="a"/><ellipse id="svg_61" transform="matrix(-0.279 0.9603 -0.9603 -0.279 1130.5075 139.1909)" ry="24" rx="17" cy="857.6" cx="562.4" class="a"/><ellipse id="svg_62" transform="matrix(-0.309 0.9511 -0.9511 -0.309 755.7941 -581.1166)" ry="53.6" rx="38" cy="296.6" cx="782" class="a"/><ellipse id="svg_64" transform="matrix(-0.3681 0.9298 -0.9298 -0.3681 585.8312 199.8695)" ry="79" rx="56" cy="299" cx="225" class="a"/><ellipse id="svg_67" transform="matrix(-0.454 0.891 -0.891 -0.454 588.2359 -84.4714)" ry="63.5" rx="45" cy="138" cx="320" class="a"/><ellipse id="svg_68" transform="matrix(-0.4818 0.8763 -0.8763 -0.4818 1077.1397 400.9814)" ry="38.1" rx="27" cy="967" cx="157.3" class="a"/><ellipse id="svg_70" transform="matrix(-0.5358 0.8443 -0.8443 -0.5358 1318.5783 121.1055)" ry="49.4" rx="35" cy="625.7" cx="683.6" class="a"/><ellipse id="svg_72" transform="matrix(-0.5878 0.809 -0.809 -0.5878 1041.2324 -52.5344)" ry="79" rx="56" cy="357.8" cx="547.4" class="a"/><ellipse id="svg_73" transform="matrix(-0.6129 0.7902 -0.7902 -0.6129 282.5273 -72.4087)" ry="38.1" rx="27" cy="33" cx="159" class="a"/><ellipse id="svg_76" transform="matrix(-0.6845 0.729 -0.729 -0.6845 907.1761 409.4298)" ry="80.4" rx="57" cy="418" cx="365.9" class="a"/><ellipse id="svg_77" transform="matrix(-0.7071 0.7071 -0.7071 -0.7071 546.5778 783.6001)" ry="28.2" rx="20" cy="793.5" cx="-187.4" class="a"/><ellipse id="svg_78" transform="matrix(-0.729 0.6845 -0.6845 -0.729 1063.5973 -501.108)" ry="76.1" rx="54" cy="132.9" cx="1094.2" class="a"/><ellipse id="svg_79" transform="matrix(-0.7501 0.6613 -0.6613 -0.7501 475.7777 68.2186)" ry="40.9" rx="29" cy="124" cx="225" class="a"/><ellipse id="svg_81" transform="matrix(-0.7902 0.6129 -0.6129 -0.7902 157.8066 -94.0293)" ry="36.7" rx="26" cy="-483" cx="-64.7" class="a"/><ellipse id="svg_85" transform="matrix(-0.8607 0.509 -0.509 -0.8607 745.47 -1.9375)" ry="28.2" rx="20" cy="101" cx="373" class="a"/><ellipse id="svg_90" transform="matrix(-0.9298 0.3681 -0.3681 -0.9298 962.412 -165.5899)" ry="18.3" rx="13" cy="-138" cx="948.8" class="a"/><ellipse id="svg_91" transform="matrix(-0.9409 0.3387 -0.3387 -0.9409 685.4419 684.3712)" ry="79" rx="56" cy="402" cx="283" class="a"/><ellipse id="svg_92" transform="matrix(-0.9511 0.309 -0.309 -0.9511 601.2827 222.7662)" ry="35.3" rx="25" cy="159" cx="283" class="a"/><ellipse id="svg_94" transform="matrix(-0.9686 0.2487 -0.2487 -0.9686 801.1531 40.7908)" ry="77.6" rx="55" cy="-101.4" cx="779.9" class="a"/><ellipse id="svg_96" transform="matrix(-0.9823 0.1874 -0.1874 -0.9823 578.4531 -58.6799)" ry="52.2" rx="37" cy="-2" cx="292" class="a"/><ellipse id="svg_98" transform="matrix(-0.9921 0.1253 -0.1253 -0.9921 512.1321 351.7794)" ry="84.6" rx="60" cy="192" cx="245" class="a"/><ellipse id="svg_99" transform="matrix(-0.9956 0.0941 -0.0941 -0.9956 1303.8864 506.5103)" ry="53.6" rx="38" cy="304.7" cx="986.6" class="a"/><ellipse id="svg_100" transform="matrix(-0.998 0.0628 -0.0628 -0.998 735.9758 62.871)" ry="33.8" rx="24" cy="43" cx="367" class="a"/><ellipse id="svg_102" transform="matrix(-1 0 0 -1 796 524)" ry="63.5" rx="45" cy="262" cx="398" class="a"/><ellipse id="svg_103" transform="matrix(-0.9995 -0.0314 0.0314 -0.9995 762.4815 223.978)" ry="52.2" rx="37" cy="106" cx="383" class="a"/><ellipse id="svg_105" transform="matrix(-0.9956 -0.0941 0.0941 -0.9956 766.771 450.16)" ry="29.6" rx="21" cy="207" cx="394" class="a"/><ellipse id="svg_108" transform="matrix(-0.9823 -0.1874 0.1874 -0.9823 679.7961 552.2597)" ry="50.8" rx="36" cy="244" cx="366" class="a"/><ellipse id="svg_109" transform="matrix(-0.9759 -0.2181 0.2181 -0.9759 1180.0643 760.2803)" ry="29.6" rx="21" cy="417" cx="790.1" class="a"/><ellipse id="svg_110" transform="matrix(-0.9686 -0.2487 0.2487 -0.9686 723.8708 713.4461)" ry="33.8" rx="24" cy="311" cx="407" class="a"/><ellipse id="svg_111" transform="matrix(-0.9603 -0.279 0.279 -0.9603 496.5785 192.6736)" ry="36.7" rx="26" cy="61" cx="262" class="a"/><ellipse id="svg_113" transform="matrix(-0.9409 -0.3387 0.3387 -0.9409 688.1799 950.1066)" ry="31" rx="22" cy="415" cx="427" class="a"/><ellipse id="svg_114" transform="matrix(-0.9298 -0.3681 0.3681 -0.9298 781.8701 357.1497)" ry="45.1" rx="32" cy="104" cx="425" class="a"/><ellipse id="svg_115" transform="matrix(-0.9178 -0.3971 0.3971 -0.9178 651.8145 618.9843)" ry="33.8" rx="24" cy="242" cx="390" class="a"/><ellipse id="svg_116" transform="matrix(-0.9048 -0.4258 0.4258 -0.9048 576.4228 42.8458)" ry="53.6" rx="38" cy="-43" cx="293" class="a"/><ellipse id="svg_117" transform="matrix(-0.891 -0.454 0.454 -0.891 642.1167 66.1586)" ry="79" rx="56" cy="-44" cx="329" class="a"/><ellipse id="svg_118" transform="matrix(-0.8763 -0.4818 0.4818 -0.8763 476.5822 1010.3655)" ry="80.4" rx="57" cy="820.7" cx="645.9" class="a"/><ellipse id="svg_119" transform="matrix(-0.8607 -0.509 0.509 -0.8607 1008.3937 1087.8653)" ry="16.9" rx="12" cy="406" cx="653" class="a"/><ellipse id="svg_121" transform="matrix(-0.8271 -0.5621 0.5621 -0.8271 811.8119 793.7459)" ry="66.3" rx="47" cy="249.1" cx="604.3" class="a"/><ellipse id="svg_124" transform="matrix(-0.7705 -0.6374 0.6374 -0.7705 384.4702 876.4178)" ry="43.7" rx="31" cy="369" cx="350" class="a"/><ellipse id="svg_127" transform="matrix(-0.7071 -0.7071 0.7071 -0.7071 674.9727 393.5828)" ry="46.5" rx="33" cy="-330.5" cx="522.2" class="a"/><ellipse id="svg_128" transform="matrix(-0.6845 -0.729 0.729 -0.6845 778.0943 452.7115)" ry="21.2" rx="15" cy="-12.6" cx="460" class="a"/><ellipse id="svg_130" transform="matrix(-0.6374 -0.7705 0.7705 -0.6374 783.0729 316.4861)" ry="16.9" rx="12" cy="-26" cx="466" class="a"/><ellipse id="svg_131" transform="matrix(-0.6129 -0.7902 0.7902 -0.6129 120.114 448.8432)" ry="84.6" rx="60" cy="195" cx="170" class="a"/><ellipse id="svg_134" transform="matrix(-0.5358 -0.8443 0.8443 -0.5358 340.1044 570.974)" ry="64.9" rx="46" cy="192" cx="327" class="a"/><ellipse id="svg_135" transform="matrix(-0.509 -0.8607 0.8607 -0.509 407.6347 754.5107)" ry="62" rx="44" cy="261" cx="419" class="a"/><ellipse id="svg_138" transform="matrix(-0.4258 -0.9048 0.9048 -0.4258 124.9727 931.3101)" ry="59.2" rx="42" cy="426" cx="358" class="a"/><ellipse id="svg_140" transform="matrix(-0.3681 -0.9298 0.9298 -0.3681 151.0143 404.6292)" ry="33.8" rx="24" cy="151" cx="213" class="a"/><ellipse id="svg_141" transform="matrix(-0.3387 -0.9409 0.9409 -0.3387 245.1771 570.3133)" ry="63.5" rx="45" cy="199" cx="323" class="a"/><ellipse id="svg_142" transform="matrix(-0.309 -0.9511 0.9511 -0.309 265.3089 804.7582)" ry="81.8" rx="58" cy="306" cx="425" class="a"/><ellipse id="svg_144" transform="matrix(-0.2487 -0.9686 0.9686 -0.2487 250.0992 151.9968)" ry="53.6" rx="38" cy="224.7" cx="-121.7" class="a"/><ellipse id="svg_145" transform="matrix(-0.2181 -0.9759 0.9759 -0.2181 -15.628 733.4796)" ry="79" rx="56" cy="373" cx="286" class="a"/><ellipse id="svg_146" transform="matrix(-0.1874 -0.9823 0.9823 -0.1874 17.4547 520.4398)" ry="26.8" rx="19" cy="253" cx="224" class="a"/><ellipse id="svg_149" transform="matrix(-0.0941 -0.9956 0.9956 -0.0941 587.0107 812.1386)" ry="22.6" rx="16" cy="139" cx="663" class="a"/><ellipse id="svg_151" transform="matrix(-0.0314 -0.9995 0.9995 -0.0314 45.043 539.6497)" ry="24" rx="17" cy="248" cx="284" class="a"/><ellipse id="svg_152" transform="matrix(0 -1 1 0 65 339)" ry="59.2" rx="42" cy="137" cx="202" class="a"/><ellipse id="svg_153" transform="matrix(0.0314 -0.9995 0.9995 0.0314 -123.8474 678.1994)" ry="19.7" rx="14" cy="403" cx="288" class="a"/><ellipse id="svg_161" transform="matrix(0.279 -0.9603 0.9603 0.279 -78.7905 885.0609)" ry="16.9" rx="12" cy="495" cx="550" class="a"/><ellipse id="svg_162" transform="matrix(0.309 -0.9511 0.9511 0.309 266.6201 574.9711)" ry="43.7" rx="31" cy="39.6" cx="461.8" class="a"/><ellipse id="svg_163" transform="matrix(0.3387 -0.9409 0.9409 0.3387 -64.0894 286.81)" ry="67.7" rx="48" cy="189" cx="172" class="a"/><ellipse id="svg_166" transform="matrix(0.4258 -0.9048 0.9048 0.4258 -340.6318 485.2501)" ry="36.7" rx="26" cy="511" cx="212" class="a"/><ellipse id="svg_170" transform="matrix(0.5358 -0.8443 0.8443 0.5358 107.1867 392.9719)" ry="45.1" rx="32" cy="99" cx="411" class="a"/><ellipse id="svg_173" transform="matrix(0.6129 -0.7902 0.7902 0.6129 -233.5793 319.2054)" ry="64.9" rx="46" cy="398" cx="209" class="a"/><ellipse id="svg_174" transform="matrix(0.6374 -0.7705 0.7705 0.6374 -242.1301 505.4473)" ry="46.5" rx="33" cy="196.2" cx="454.9" class="a"/><ellipse id="svg_175" transform="matrix(0.6613 -0.7501 0.7501 0.6613 -30.3198 328.849)" ry="79" rx="56" cy="198" cx="349" class="a"/><ellipse id="svg_177" transform="matrix(0.7071 -0.7071 0.7071 0.7071 28.8329 429.6087)" ry="57.8" rx="41" cy="102.9" cx="321.6" class="a"/><ellipse id="svg_178" transform="matrix(0.729 -0.6845 0.6845 0.729 -116.1345 172.6778)" ry="18.3" rx="13" cy="233" cx="160" class="a"/><ellipse id="svg_180" transform="matrix(0.7705 -0.6374 0.6374 0.7705 -95.3813 179.0683)" ry="36.7" rx="26" cy="222" cx="201" class="a"/><ellipse id="svg_183" transform="matrix(0.8271 -0.5621 0.5621 0.8271 -290.9008 110.4123)" ry="60.6" rx="43" cy="584.9" cx="539.4" class="a"/><ellipse id="svg_186" transform="matrix(0.8763 -0.4818 0.4818 0.8763 -79.5415 126.2064)" ry="50.8" rx="36" cy="218" cx="206" class="a"/><ellipse id="svg_187" transform="matrix(0.891 -0.454 0.454 0.891 -211.0597 178.873)" ry="35.3" rx="25" cy="529" cx="267" class="a"/><ellipse id="svg_189" transform="matrix(0.9178 -0.3971 0.3971 0.9178 0.9196 158.4405)" ry="43.7" rx="31" cy="77" cx="383" class="a"/><ellipse id="svg_191" transform="matrix(0.9409 -0.3387 0.3387 0.9409 -115.1981 97.9447)" ry="42.3" rx="30" cy="379" cx="223" class="a"/><ellipse id="svg_194" transform="matrix(0.9686 -0.2487 0.2487 0.9686 -5.3604 61.5679)" ry="39.5" rx="28" cy="52" cx="241" class="a"/><ellipse id="svg_195" transform="matrix(0.9759 -0.2181 0.2181 0.9759 -4.5261 95.003)" ry="57.8" rx="41" cy="81.8" cx="90.9" class="a"/><ellipse id="svg_196" transform="matrix(0.9823 -0.1874 0.1874 0.9823 -98.6651 28.2322)" ry="40.9" rx="29" cy="167.1" cx="124.6" class="a"/><ellipse id="svg_197" transform="matrix(0.9877 -0.1564 0.1564 0.9877 -46.7458 74.0383)" ry="45.1" rx="32" cy="334" cx="447" class="a"/><ellipse id="svg_199" transform="matrix(0.9956 -0.0941 0.0941 0.9956 -40.791 35.0291)" ry="22.6" rx="16" cy="450" cx="351" class="a"/><ellipse id="svg_200" transform="matrix(0.998 -0.0628 0.0628 0.998 -31.276 20.7814)" ry="19.7" rx="14" cy="508" cx="315" class="a"/><ellipse ry="240" rx="240" id="svg_202" cy="240" cx="240" style="fill:none;stroke-opacity:null;stroke-width:100;stroke:#0f0f00"/></svg>
