<svg width="400" height="400" xmlns="http://www.w3.org/2000/svg">
 <style>.a{fill:#f92673;stroke-width:6;stroke:#000;}</style>

 <desc>Created with Raphaël 2.0.1</desc>
 <title>background</title>
 <title>Layer 1</title>
 <g>
  <title>Layer 1</title>
  <rect fill="none" x="-73" y="-61" width="402" height="402" id="canvas_background"/>
  <ellipse class="a" cx="91" cy="169" rx="25" ry="35.3" id="svg_2"/>
  <ellipse class="a" cx="637" cy="-56" rx="32" ry="45.1" transform="matrix(0.998,0.0628,-0.0628,0.998,-2.2593,-40.1081) " id="svg_4"/>
  <ellipse class="a" cx="344.676535" cy="267.043128" rx="41" ry="57.8" transform="matrix(0.9956,0.0941,-0.0941,0.9956,31.9875,-38.2935) " id="svg_5"/>
  <ellipse class="a" cx="302.047839" cy="218.493706" rx="18" ry="25.4" transform="matrix(0.9921,0.1253,-0.1253,0.9921,36.7189,-45.6308) " id="svg_6"/>
  <ellipse class="a" cx="144.033027" cy="374.556256" rx="60" ry="84.6" transform="matrix(0.9823,0.1874,-0.1874,0.9823,82.7032,-34.9088) " id="svg_8"/>
  <ellipse class="a" cx="-23" cy="355" rx="19" ry="26.8" transform="matrix(0.9603,0.279,-0.279,0.9603,98.1286,20.5125) " id="svg_11"/>
  <ellipse class="a" cx="185" cy="470" rx="30" ry="42.3" transform="matrix(0.9511,0.309,-0.309,0.9511,154.2925,-34.1647) " id="svg_12"/>
  <ellipse class="a" cx="271.934125" cy="121.932737" rx="39" ry="55" transform="matrix(0.9409,0.3387,-0.3387,0.9409,73.4486,-112.8413) " id="svg_13"/>
  <ellipse class="a" cx="76.096468" cy="316.524398" rx="42" ry="59.2" transform="matrix(0.9178,0.3971,-0.3971,0.9178,149.8745,-37.7164) " id="svg_15"/>
  <ellipse class="a" cx="334" cy="495" rx="20" ry="28.2" transform="matrix(0.9048,0.4258,-0.4258,0.9048,242.5485,-95.0997) " id="svg_16"/>
  <ellipse class="a" cx="291.607726" cy="347.227938" rx="32" ry="45.1" transform="matrix(0.891,0.454,-0.454,0.891,208.813,-133.7688) " id="svg_17"/>
  <ellipse class="a" cx="328" cy="-3" rx="23" ry="32.4" transform="matrix(0.8763,0.4818,-0.4818,0.8763,39.1261,-158.3863) " id="svg_18"/>
  <ellipse class="a" cx="-45.57246" cy="381.745665" rx="13" ry="18.3" transform="matrix(0.8271,0.5621,-0.5621,0.8271,288.3043,62.8522) " id="svg_21"/>
  <ellipse class="a" cx="250.337449" cy="260.717005" rx="36" ry="50.8" transform="matrix(0.7902,0.6129,-0.6129,0.7902,233.9941,-155.4409) " id="svg_23"/>
  <ellipse class="a" cx="298.275221" cy="353.662783" rx="42" ry="59.2" transform="matrix(0.7705,0.6374,-0.6374,0.7705,315.6069,-168.6319) " id="svg_24"/>
  <ellipse class="a" cx="155.66101" cy="113.485363" rx="27" ry="38.1" transform="matrix(0.7071,0.7071,-0.7071,0.7071,147.1766,-145.3158) " id="svg_27"/>
  <ellipse class="a" cx="398.977408" cy="410.429663" rx="53" ry="74.7" transform="matrix(0.6613,0.7501,-0.7501,0.6613,119.9706,-235.7053) " id="svg_29"/>
  <ellipse class="a" cx="236.972502" cy="374.032879" rx="51" ry="71.9" transform="matrix(0.6374,0.7705,-0.7705,0.6374,502.0921,-303.0001) " id="svg_30"/>
  <ellipse class="a" cx="286" cy="-31" rx="21" ry="29.6" transform="matrix(0.6129,0.7902,-0.7902,0.6129,86.2138,-237.9842) " id="svg_31"/>
  <ellipse class="a" cx="199.137477" cy="154.980233" rx="58" ry="81.8" transform="matrix(0.5878,0.809,-0.809,0.5878,226.3325,-180.2026) " id="svg_32"/>
  <ellipse class="a" cx="651" cy="-41" rx="13" ry="18.3" transform="matrix(0.5621,0.8271,-0.8271,0.5621,251.1734,-556.384) " id="svg_33"/>
  <ellipse class="a" cx="447" cy="218" rx="14" ry="19.7" transform="matrix(0.509,0.8607,-0.8607,0.509,407.1002,-277.7227) " id="svg_35"/>
  <ellipse class="a" cx="317" cy="-31" rx="35" ry="49.4" transform="matrix(0.4818,0.8763,-0.8763,0.4818,137.1186,-293.8549) " id="svg_36"/>
  <ellipse class="a" cx="198.051739" cy="126.59884" rx="58" ry="81.8" transform="matrix(0.4258,0.9048,-0.9048,0.4258,241.2244,-206.1089) " id="svg_38"/>
  <ellipse class="a" cx="360.144585" cy="367.953688" rx="28" ry="39.5" transform="matrix(0.3971,0.9178,-0.9178,0.3971,300.6161,-443.6443) " id="svg_39"/>
  <ellipse class="a" cx="205" cy="-41" rx="55" ry="77.6" transform="matrix(0.3681,0.9298,-0.9298,0.3681,91.4136,-216.5111) " id="svg_40"/>
  <ellipse class="a" cx="333.160449" cy="104.422302" rx="19" ry="26.8" transform="matrix(0.3387,0.9409,-0.9409,0.3387,327.3927,-351.8327) " id="svg_41"/>
  <ellipse class="a" cx="73.691727" cy="277.935594" rx="40" ry="56.4" transform="matrix(0.309,0.9511,-0.9511,0.309,322.5613,12.0325) " id="svg_42"/>
  <ellipse class="a" cx="319.295328" cy="238.400704" rx="52" ry="73.3" transform="matrix(0.279,0.9603,-0.9603,0.279,464.8552,-247.1289) " id="svg_43"/>
  <ellipse class="a" cx="277" cy="502" rx="37" ry="52.2" transform="matrix(0.2487,0.9686,-0.9686,0.2487,694.3416,108.8601) " id="svg_44"/>
  <ellipse class="a" cx="540.03897" cy="439.781749" rx="44" ry="62" transform="matrix(0.2181,0.9759,-0.9759,0.2181,328.4192,-465.9341) " id="svg_45"/>
  <ellipse class="a" cx="-8" cy="-51" rx="29" ry="40.9" transform="matrix(0.1253,0.9921,-0.9921,0.1253,-57.5952,-36.6711) " id="svg_48"/>
  <ellipse class="a" cx="512.195041" cy="720.391552" rx="54" ry="76.1" transform="matrix(0.0628,0.998,-0.998,0.0628,1011.8167,-257.4753) " id="svg_50"/>
  <ellipse class="a" cx="344.768342" cy="418.080966" rx="22" ry="31" transform="matrix(0.0314,0.9995,-0.9995,0.0314,742.0441,-69.7301) " id="svg_51"/>
  <ellipse class="a" cx="100.999388" cy="354.497414" rx="39" ry="55" transform="matrix(-0.1564,0.9877,-0.9877,-0.1564,442.9353,169.6975) " id="svg_57"/>
  <ellipse class="a" cx="332.556256" cy="302.966973" rx="34" ry="47.9" transform="matrix(-0.1874,0.9823,-0.9823,-0.1874,665.9156,-108.8933) " id="svg_58"/>
  <ellipse class="a" cx="658" cy="519" rx="17" ry="24" transform="matrix(-0.2181,0.9759,-0.9759,-0.2181,1308.0391,-9.9369) " id="svg_59"/>
  <ellipse class="a" cx="562.4" cy="857.6" rx="17" ry="24" transform="matrix(-0.279,0.9603,-0.9603,-0.279,1130.5075,139.1909) " id="svg_61"/>
  <ellipse class="a" cx="747.184514" cy="383.612917" rx="38" ry="53.6" transform="matrix(-0.309,0.9511,-0.9511,-0.309,755.7941,-581.1166) " id="svg_62"/>
  <ellipse class="a" cx="195.715951" cy="388.029316" rx="56" ry="79" transform="matrix(-0.3681,0.9298,-0.9298,-0.3681,585.8312,199.8695) " id="svg_64"/>
  <ellipse class="a" cx="299.227938" cy="229.392274" rx="45" ry="63.5" transform="matrix(-0.454,0.891,-0.891,-0.454,588.2359,-84.4714) " id="svg_67"/>
  <ellipse class="a" cx="139.412189" cy="1058.99857" rx="27" ry="38.1" transform="matrix(-0.4818,0.8763,-0.8763,-0.4818,1077.1397,400.9814) " id="svg_68"/>
  <ellipse class="a" cx="671.518683" cy="718.644652" rx="35" ry="49.4" transform="matrix(-0.5358,0.8443,-0.8443,-0.5358,1318.5783,121.1055) " id="svg_70"/>
  <ellipse class="a" cx="541.181537" cy="451.31695" rx="56" ry="79" transform="matrix(-0.5878,0.809,-0.809,-0.5878,1041.2324,-52.5344) " id="svg_72"/>
  <ellipse class="a" cx="155.717005" cy="126.662551" rx="27" ry="38.1" transform="matrix(-0.6129,0.7902,-0.7902,-0.6129,282.5273,-72.4087) " id="svg_73"/>
  <ellipse class="a" cx="371.444104" cy="511.559754" rx="57" ry="80.4" transform="matrix(-0.6845,0.729,-0.729,-0.6845,907.1761,409.4298) " id="svg_76"/>
  <ellipse class="a" cx="-178.914637" cy="886.83899" rx="20" ry="28.2" transform="matrix(-0.7071,0.7071,-0.7071,-0.7071,546.5778,783.6001) " id="svg_77"/>
  <ellipse class="a" cx="1105.618214" cy="225.925744" rx="54" ry="76.1" transform="matrix(-0.729,0.6845,-0.6845,-0.729,1063.5973,-501.108) " id="svg_78"/>
  <ellipse class="a" cx="239.329663" cy="216.622592" rx="29" ry="40.9" transform="matrix(-0.7501,0.6613,-0.6613,-0.7501,475.7777,68.2186) " id="svg_79"/>
  <ellipse class="a" cx="-64.7" cy="-483" rx="26" ry="36.7" transform="matrix(-0.7902,0.6129,-0.6129,-0.7902,157.8066,-94.0293) " id="svg_81"/>
  <ellipse class="a" cx="404.434" cy="189.300111" rx="20" ry="28.2" transform="matrix(-0.8607,0.509,-0.509,-0.8607,745.47,-1.9375) " id="svg_85"/>
  <ellipse class="a" cx="993.658449" cy="-55.710911" rx="13" ry="18.3" transform="matrix(-0.9298,0.3681,-0.3681,-0.9298,962.412,-165.5899) " id="svg_90"/>
  <ellipse class="a" cx="330.422302" cy="482.839551" rx="56" ry="79" transform="matrix(-0.9409,0.3387,-0.3387,-0.9409,685.4419,684.3712) " id="svg_91"/>
  <ellipse class="a" cx="332.935594" cy="238.308273" rx="25" ry="35.3" transform="matrix(-0.9511,0.309,-0.309,-0.9511,601.2827,222.7662) " id="svg_92"/>
  <ellipse class="a" cx="834.715136" cy="-25.380462" rx="55" ry="77.6" transform="matrix(-0.9686,0.2487,-0.2487,-0.9686,801.1531,40.7908) " id="svg_94"/>
  <ellipse class="a" cx="292" cy="-2" rx="37" ry="52.2" transform="matrix(-0.9823,0.1874,-0.1874,-0.9823,578.4531,-58.6799) " id="svg_96"/>
  <ellipse class="a" cx="308.915597" cy="260.550171" rx="60" ry="84.6" transform="matrix(-0.9921,0.1253,-0.1253,-0.9921,512.1321,351.7794) " id="svg_98"/>
  <ellipse class="a" cx="1052.632302" cy="371.206267" rx="38" ry="53.6" transform="matrix(-0.9956,0.0941,-0.0941,-0.9956,1303.8864,506.5103) " id="svg_99"/>
  <ellipse class="a" cx="435.091552" cy="107.404959" rx="24" ry="33.8" transform="matrix(-0.998,0.0628,-0.0628,-0.998,735.9758,62.871) " id="svg_100"/>
  <ellipse class="a" cx="470" cy="322" rx="45" ry="63.5" transform="matrix(-1,0,0,-1,796,524) " id="svg_102"/>
  <ellipse class="a" cx="456.849018" cy="163.709996" rx="37" ry="52.2" transform="matrix(-0.9995,-0.0314,0.0314,-0.9995,762.4815,223.978) " id="svg_103"/>
  <ellipse class="a" cx="471.323465" cy="259.956872" rx="21" ry="29.6" transform="matrix(-0.9956,-0.0941,0.0941,-0.9956,766.771,450.16) " id="svg_105"/>
  <ellipse class="a" cx="447.966973" cy="289.443744" rx="36" ry="50.8" transform="matrix(-0.9823,-0.1874,0.1874,-0.9823,679.7961,552.2597) " id="svg_108"/>
  <ellipse class="a" cx="790.1" cy="417" rx="21" ry="29.6" transform="matrix(-0.9759,-0.2181,0.2181,-0.9759,1180.0643,760.2803) " id="svg_109"/>
  <ellipse class="a" cx="491.658013" cy="351.208086" rx="24" ry="33.8" transform="matrix(-0.9686,-0.2487,0.2487,-0.9686,723.8708,713.4461) " id="svg_110"/>
  <ellipse class="a" cx="347.880132" cy="98.529359" rx="26" ry="36.7" transform="matrix(-0.9603,-0.279,0.279,-0.9603,496.5785,192.6736) " id="svg_111"/>
  <ellipse class="a" cx="515.065875" cy="447.067263" rx="22" ry="31" transform="matrix(-0.9409,-0.3387,0.3387,-0.9409,688.1799,950.1066) " id="svg_113"/>
  <ellipse class="a" cx="514.029316" cy="133.284049" rx="32" ry="45.1" transform="matrix(-0.9298,-0.3681,0.3681,-0.9298,781.8701,357.1497) " id="svg_114"/>
  <ellipse class="a" cx="479.903532" cy="268.475602" rx="24" ry="33.8" transform="matrix(-0.9178,-0.3971,0.3971,-0.9178,651.8145,618.9843) " id="svg_115"/>
  <ellipse class="a" cx="293" cy="-43" rx="38" ry="53.6" transform="matrix(-0.9048,-0.4258,0.4258,-0.9048,576.4228,42.8458) " id="svg_116"/>
  <ellipse class="a" cx="329" cy="-44" rx="56" ry="79" transform="matrix(-0.891,-0.454,0.454,-0.891,642.1167,66.1586) " id="svg_117"/>
  <ellipse class="a" cx="645.9" cy="820.7" rx="57" ry="80.4" transform="matrix(-0.8763,-0.4818,0.4818,-0.8763,476.5822,1010.3655) " id="svg_118"/>
  <ellipse class="a" cx="653" cy="406" rx="12" ry="16.9" transform="matrix(-0.8607,-0.509,0.509,-0.8607,1008.3937,1087.8653) " id="svg_119"/>
  <ellipse class="a" cx="697.57246" cy="258.254335" rx="47" ry="66.3" transform="matrix(-0.8271,-0.5621,0.5621,-0.8271,811.8119,793.7459) " id="svg_121"/>
  <ellipse class="a" cx="443.724779" cy="369.337217" rx="31" ry="43.7" transform="matrix(-0.7705,-0.6374,0.6374,-0.7705,384.4702,876.4178) " id="svg_124"/>
  <ellipse class="a" cx="615.53899" cy="-338.985363" rx="33" ry="46.5" transform="matrix(-0.7071,-0.7071,0.7071,-0.7071,674.9727,393.5828) " id="svg_127"/>
  <ellipse class="a" cx="460" cy="-12.6" rx="15" ry="21.2" transform="matrix(-0.6845,-0.729,0.729,-0.6845,778.0943,452.7115) " id="svg_128"/>
  <ellipse class="a" cx="466" cy="-26" rx="12" ry="16.9" transform="matrix(-0.6374,-0.7705,0.7705,-0.6374,783.0729,316.4861) " id="svg_130"/>
  <ellipse class="a" cx="261.535084" cy="174.880856" rx="60" ry="84.6" transform="matrix(-0.6129,-0.7902,0.7902,-0.6129,120.114,448.8432) " id="svg_131"/>
  <ellipse class="a" cx="416.242371" cy="163.356227" rx="46" ry="64.9" transform="matrix(-0.5358,-0.8443,0.8443,-0.5358,340.1044,570.974) " id="svg_134"/>
  <ellipse class="a" cx="507.300111" cy="229.566" rx="44" ry="62" transform="matrix(-0.509,-0.8607,0.8607,-0.509,407.6347,754.5107) " id="svg_135"/>
  <ellipse class="a" cx="442.948261" cy="386.40116" rx="42" ry="59.2" transform="matrix(-0.4258,-0.9048,0.9048,-0.4258,124.9727,931.3101) " id="svg_138"/>
  <ellipse class="a" cx="295.289089" cy="106.141551" rx="24" ry="33.8" transform="matrix(-0.3681,-0.9298,0.9298,-0.3681,151.0143,404.6292) " id="svg_140"/>
  <ellipse class="a" cx="403.839551" cy="151.577698" rx="45" ry="63.5" transform="matrix(-0.3387,-0.9409,0.9409,-0.3387,245.1771,570.3133) " id="svg_141"/>
  <ellipse class="a" cx="504.308273" cy="256.064406" rx="58" ry="81.8" transform="matrix(-0.309,-0.9511,0.9511,-0.309,265.3089,804.7582) " id="svg_142"/>
  <ellipse class="a" cx="-121.7" cy="224.7" rx="38" ry="53.6" transform="matrix(-0.2487,-0.9686,0.9686,-0.2487,250.0992,151.9968) " id="svg_144"/>
  <ellipse class="a" cx="360.26103" cy="315.818251" rx="56" ry="79" transform="matrix(-0.2181,-0.9759,0.9759,-0.2181,-15.628,733.4796) " id="svg_145"/>
  <ellipse class="a" cx="296.428479" cy="193.520306" rx="19" ry="26.8" transform="matrix(-0.1874,-0.9823,0.9823,-0.1874,17.4547,520.4398) " id="svg_146"/>
  <ellipse class="a" cx="663" cy="139" rx="16" ry="22.6" transform="matrix(-0.0941,-0.9956,0.9956,-0.0941,587.0107,812.1386) " id="svg_149"/>
  <ellipse class="a" cx="346.231658" cy="177.919034" rx="17" ry="24" transform="matrix(-0.0314,-0.9995,0.9995,-0.0314,45.043,539.6497) " id="svg_151"/>
  <ellipse class="a" cx="262" cy="65" rx="42" ry="59.2" transform="matrix(0,-1,1,0,65,339) " id="svg_152"/>
  <ellipse class="a" cx="345.709996" cy="329.150982" rx="14" ry="19.7" transform="matrix(0.0314,-0.9995,0.9995,0.0314,-123.8474,678.1994) " id="svg_153"/>
  <ellipse class="a" cx="550" cy="495" rx="12" ry="16.9" transform="matrix(0.279,-0.9603,0.9603,0.279,-78.7905,885.0609) " id="svg_161"/>
  <ellipse class="a" cx="496.615486" cy="-47.412917" rx="31" ry="43.7" transform="matrix(0.309,-0.9511,0.9511,0.309,266.6201,574.9711) " id="svg_162"/>
  <ellipse class="a" cx="204.067263" cy="100.934125" rx="48" ry="67.7" transform="matrix(0.3387,-0.9409,0.9409,0.3387,-64.0894,286.81) " id="svg_163"/>
  <ellipse class="a" cx="212" cy="511" rx="26" ry="36.7" transform="matrix(0.4258,-0.9048,0.9048,0.4258,-340.6318,485.2501) " id="svg_166"/>
  <ellipse class="a" cx="423.081317" cy="6.055348" rx="32" ry="45.1" transform="matrix(0.5358,-0.8443,0.8443,0.5358,107.1867,392.9719) " id="svg_170"/>
  <ellipse class="a" cx="212.282995" cy="304.337449" rx="46" ry="64.9" transform="matrix(0.6129,-0.7902,0.7902,0.6129,-233.5793,319.2054) " id="svg_173"/>
  <ellipse class="a" cx="455.237217" cy="102.475221" rx="33" ry="46.5" transform="matrix(0.6374,-0.7705,0.7705,0.6374,-242.1301,505.4473) " id="svg_174"/>
  <ellipse class="a" cx="346.392316" cy="104.311774" rx="56" ry="79" transform="matrix(0.6613,-0.7501,0.7501,0.6613,-30.3198,328.849) " id="svg_175"/>
  <ellipse class="a" cx="313.114637" cy="9.56101" rx="41" ry="57.8" transform="matrix(0.7071,-0.7071,0.7071,0.7071,28.8329,429.6087) " id="svg_177"/>
  <ellipse class="a" cx="148.581786" cy="139.974256" rx="13" ry="18.3" transform="matrix(0.729,-0.6845,0.6845,0.729,-116.1345,172.6778) " id="svg_178"/>
  <ellipse class="a" cx="183.767121" cy="129.872502" rx="26" ry="36.7" transform="matrix(0.7705,-0.6374,0.6374,0.7705,-95.3813,179.0683) " id="svg_180"/>
  <ellipse class="a" cx="539.4" cy="584.9" rx="43" ry="60.6" transform="matrix(0.8271,-0.5621,0.5621,0.8271,-290.9008,110.4123) " id="svg_183"/>
  <ellipse class="a" cx="171.815526" cy="130.735274" rx="36" ry="50.8" transform="matrix(0.8763,-0.4818,0.4818,0.8763,-79.5415,126.2064) " id="svg_186"/>
  <ellipse class="a" cx="267" cy="529" rx="25" ry="35.3" transform="matrix(0.891,-0.454,0.454,0.891,-211.0597,178.873) " id="svg_187"/>
  <ellipse class="a" cx="340.746312" cy="-6.655415" rx="31" ry="43.7" transform="matrix(0.9178,-0.3971,0.3971,0.9178,0.9196,158.4405) " id="svg_189"/>
  <ellipse class="a" cx="175.577698" cy="298.160449" rx="30" ry="42.3" transform="matrix(0.9409,-0.3387,0.3387,0.9409,-115.1981,97.9447) " id="svg_191"/>
  <ellipse class="a" cx="186.184864" cy="-24.019538" rx="28" ry="39.5" transform="matrix(0.9686,-0.2487,0.2487,0.9686,-5.3604,61.5679) " id="svg_194"/>
  <ellipse class="a" cx="33.718251" cy="7.53897" rx="41" ry="57.8" transform="matrix(0.9759,-0.2181,0.2181,0.9759,-4.5261,95.003) " id="svg_195"/>
  <ellipse class="a" cx="124.6" cy="167.1" rx="29" ry="40.9" transform="matrix(0.9823,-0.1874,0.1874,0.9823,-98.6651,28.2322) " id="svg_196"/>
  <ellipse class="a" cx="385.270356" cy="263.478064" rx="32" ry="45.1" transform="matrix(0.9877,-0.1564,0.1564,0.9877,-46.7458,74.0383) " id="svg_197"/>
  <ellipse class="a" cx="351" cy="450" rx="16" ry="22.6" transform="matrix(0.9956,-0.0941,0.0941,0.9956,-40.791,35.0291) " id="svg_199"/>
  <ellipse class="a" cx="315" cy="508" rx="14" ry="19.7" transform="matrix(0.998,-0.0628,0.0628,0.998,-31.276,20.7814) " id="svg_200"/>
  <ellipse fill="none" stroke-opacity="null" stroke-width="99" stroke="#0f0f00" cx="200" cy="200" id="svg_202" rx="250" ry="250"/>
 </g>
</svg>