<svg width="400" height="400" version="1.1" viewBox="0 0 105.83333 105.83334" xmlns="http://www.w3.org/2000/svg" xmlns:xlink="http://www.w3.org/1999/xlink">
 <defs>
  <clipPath id="clipPath5296">
   <circle cx="178" cy="199" r="200" fill="#b3b3b3" stroke-width="1.16"/>
  </clipPath>
  <clipPath id="clipPath4088">
   <use width="100%" height="100%" xlink:href="#g4084"/>
  </clipPath>
 </defs>
 <g transform="translate(0 -191)">
  <g transform="matrix(.265 0 0 .265 1.08e-7 191)">
   <g transform="translate(22.1 1)" clip-path="url(#clipPath5296)">
    <title>Layer 1</title>
     <g id="g4084">
      <path id="canvas_background" d="m-73-61h402v402h-402v-402z" fill="none"/>
      <path d="m116 169c3.29 19.7-19.9 47.1-38.5 29.3-18.5-17.2-15.3-56 10.4-64.3 18.5-2.71 28.6 19.6 28 35z" fill="#f92673" stroke="#000" stroke-width="6"/>
      <path d="m391 264c-1.06 24.1-17.6 52.6-44 53.6-25.8-1.51-38.8-30.9-38.2-53.8 0.554-22.8 10.1-49.4 32.1-59.4 23.1-7.6 47.7 12.9 48.9 36.3 1.59 7.63 1.95 15.5 1.22 23.3z" fill="#f92673" stroke="#000" stroke-width="6"/>
      <path d="m327 211c1.57 18.5-27 33.8-34 11.1-13.3-20.4 19.7-56.7 32.4-26.6 1.79 4.91 2.34 10.3 1.63 15.4z" fill="#f92673" stroke="#000" stroke-width="6"/>
      <path d="m213 371c-4.73 32.9-28.6 67.9-63.6 72.3-32.5 2.43-52.9-31.3-55.8-59.8-3.98-34.7 8.8-71.3 33.9-95.5 26.3-21.9 73.1-9.57 81.5 24.7 6.09 18.8 7.88 38.9 3.94 58.4z" fill="#f92673" stroke="#000" stroke-width="6"/>
      <path d="m325 107c-6.76 22.6-30.5 46.2-55.7 38.2-23.5-10.6-26.3-42.5-18-64.1 7.51-19.2 23.7-41.4 46.5-40.8 22.5 2.27 36.3 27 31.4 48.1-0.583 6.33-2.01 12.6-4.16 18.6z" fill="#f92673" stroke="#000" stroke-width="6"/>
      <path d="m133 300c-8.65 23.1-33.7 45.6-59.8 38.3-24.9-9.75-28.1-42.8-19.9-65.1 7.45-20.3 22.6-41 44.5-46.5 24.8-4.18 47 21.1 41.8 45.3-0.399 9.6-2.74 19.1-6.54 27.9z" fill="#f92673" stroke="#000" stroke-width="6"/>
      <path d="m340 323c-8.13 19.6-35.8 38.2-54.8 21.3-22.4-28.1 1.46-76.2 36.4-78.7 27.8 1.92 30.1 38.4 18.4 57.3z" fill="#f92673" stroke="#000" stroke-width="6"/>
      <path d="m348 8.1c-6.09 17.3-36.9 29.1-44 6.54-7.33-22.1 12.5-51.9 36.9-47.1 16.1 6 14.4 28.5 7.14 40.6z" fill="#f92673" stroke="#000" stroke-width="6"/>
      <path d="m46.8 360c-10.9 21.7-37.1 0.0205-20.8-15.8 12.1-18.6 35-1.25 20.8 15.8z" fill="#f92673" stroke="#000" stroke-width="6"/>
      <path d="m300 226c-12.4 17.9-40 31.8-59.8 17.7-18.2-16.7-10.4-46.8 4.09-63.5 13-15.2 37.5-30.3 56.7-17.4 17.1 13.3 16 39 4.21 55.5-1.57 2.68-3.31 5.26-5.21 7.71z" fill="#f92673" stroke="#000" stroke-width="6"/>
      <path d="m352 321c-14.8 19.8-45.1 34.4-68.1 20.1-21.2-16.3-15-49-0.999-68 12.8-17.4 33.2-33 55.7-32.2 25 2.92 39.3 33.4 27.5 55.2-3.06 9.11-7.96 17.6-14.1 25z" fill="#f92673" stroke="#000" stroke-width="6"/>
      <path d="m196 64.1c-12.5 17.5-50.9 20.8-51.8-6.78-1.01-26.7 28.8-52.7 54.9-42.7 18.9 10.5 9.65 38-3.15 49.4z" fill="#f92673" stroke="#000" stroke-width="6"/>
      <path d="m111 375c-21.7 21.1-59.8 33-86.3 13.9-23.7-19.8-15.1-56.8 1.85-78.2 17.4-22.3 44.5-39.1 73.2-39.8 30.4 1.24 53.9 37.3 38.5 64.8-5.36 15.2-15.2 28.7-27.2 39.3z" fill="#f92673" stroke="#000" stroke-width="6"/>
      <path d="m397 157c-21.5 19.6-58.5 29.9-83.4 10.8-22.2-19.8-12.8-55.1 4.15-75.2 17.4-20.9 44-36.3 71.6-36.1 29.2 2.1 50.7 37.5 35.1 63.5-5.62 14.5-15.5 27.1-27.4 37z" fill="#f92673" stroke="#000" stroke-width="6"/>
      <path d="m252 119c-25.1 20.1-65.1 28.9-92.7 8.85-25.1-20.4-16.2-58.7 1.6-80.8 20.3-26 52.8-42.8 85.8-43.1 34.7 1.9 59.5 45.4 39 75.1-7.42 16.1-19.5 29.7-33.7 40.1z" fill="#f92673" stroke="#000" stroke-width="6"/>
      <path d="m236 79.5c-28.4 15-69.3 16.2-92.7-8.67-20.8-24.7-4.9-60.7 16.7-79.1 24.8-21.7 59.9-32.1 92.4-26.3 33.7 8.37 49.9 55.8 24.3 81-10.3 14.4-24.7 25.5-40.7 33z" fill="#f92673" stroke="#000" stroke-width="6"/>
      <path d="m117 58.7c-18.7 12.1-57 0.647-47.3-26.3 9.22-26.2 47.9-39.8 69.2-20.2 14.2 17.3-5.2 40.3-21.9 46.5z" fill="#f92673" stroke="#000" stroke-width="6"/>
      <path d="m348 14.9c-15.7 9.46-43.6-7.03-27.9-25.1 10.1-19 53.9-17.2 46.2 9.31-3.39 7.57-10.5 13.2-18.3 15.8z" fill="#f92673" stroke="#000" stroke-width="6"/>
      <path d="m93.3 206c-22.6 8.73-56.6 4.27-66-21.1-6.23-25.7 17.9-48 40.6-54.9 19.8-5.87 46.1-6.64 60.9 10 13.6 18.2 4.54 46.1-15.1 55.9-6.22 4.38-13.1 7.75-20.4 10.1z" fill="#f92673" stroke="#000" stroke-width="6"/>
      <path d="m340 176c-28.1 9.63-66.8 4.29-82.4-23.7-12.7-27.5 10.3-56.8 34.3-68.7 24.8-12.5 55.9-16.1 81.6-4.78 26.4 13.8 32.2 55.6 7.09 73.6-11.1 11.3-25.5 19.1-40.6 23.5z" fill="#f92673" stroke="#000" stroke-width="6"/>
      <path d="m26.6 200c-24.9 6.9-59.4-0.499-69.3-27.1-7.04-27.1 19-50.2 42.8-57 21.8-6.17 48.7-6.04 66.8 9.1 17.3 17 12.6 49.7-9.13 60.9-9.19 6.92-20 11.6-31.2 14.1z" fill="#f92673" stroke="#000" stroke-width="6"/>
      <path d="m328 353c-30.7 3.39-68.7-10.8-78.2-42.7-6.67-30.7 23.3-55.2 50.3-61.8 27.9-7.06 60.3-3.66 83.8 13.7 23.7 20 20.1 63.6-9.48 76.2-13.8 8.92-30.1 13.6-46.5 14.6z" fill="#f92673" stroke="#000" stroke-width="6"/>
      <path d="m336 310c-18.4 4-43.3-18.7-25.2-34.8 15.6-15.3 49.8-12.2 55.4 11.2 0.73 15.4-17.1 23.5-30.2 23.6z" fill="#f92673" stroke="#000" stroke-width="6"/>
      <path d="m70.9 253c-23.5-2.4-51.1-21.3-48-47.6 5.96-25.1 36.8-33.8 59.6-29.7 20.3 3.77 45.1 15.5 48.8 38.1 2 22.6-19.8 40.7-41.4 39.8-6.33 0.614-12.7 0.378-19-0.612z" fill="#f92673" stroke="#000" stroke-width="6"/>
      <path d="m300 194c-21.8-2.67-47.4-23.1-39.1-47.3 14-25.3 51-25.7 73.1-11.3 19.8 9.31 28.2 38.9 6.73 51.8-11.6 9.24-26.8 9.35-40.8 6.81z" fill="#f92673" stroke="#000" stroke-width="6"/>
      <path d="m148 47.1c-22.2-5.89-45.9-28.3-38.9-53.1 10.1-24.1 42.7-27.1 64.5-18.6 19.2 7.35 41.7 24.9 38.1 47.8-5.38 22-31.1 32.2-51.8 26.7-4.05-0.61-8.05-1.56-11.9-2.83z" fill="#f92673" stroke="#000" stroke-width="6"/>
      <path d="m132 291c-30.3-10.4-59.8-40.5-54.6-74.6 7.31-31.8 46.3-41.5 74.6-35.8 29.3 5.72 58.2 23.2 72.7 49.8 13.4 29.2-9.27 68.6-42.6 67.3-16.9 2.26-34.3-0.563-50.1-6.79z" fill="#f92673" stroke="#000" stroke-width="6"/>
      <path d="m228 118c-24.2-10.8-46.6-39.1-37-66.6 12.1-26 47.8-27.1 71-16.9 21.2 9.35 42.3 27 46.7 50.7 2.61 24.7-22.5 47.4-46.9 42-11.8-0.54-23.3-3.89-33.8-9.22z" fill="#f92673" stroke="#000" stroke-width="6"/>
      <path d="m69 36.6c-20.3-7.13-34.2-43.1-7.93-51.6 25.4-8.42 58.7 13 56.3 40.8-4.82 21-33.8 19.9-48.4 10.8z" fill="#f92673" stroke="#000" stroke-width="6"/>
      <path d="m333 333c-18.5-10.3-34.5-35.8-22.6-56.3 15.2-19.8 46.3-14.1 63.8-0.469 16 11.8 32.1 36.8 17.7 55.4-15.5 17.1-41.7 13.5-59 1.31z" fill="#f92673" stroke="#000" stroke-width="6"/>
      <path d="m325 165c-26.7-17.6-47.8-54-34.3-85.8 15-29 55.2-28.7 81.2-16.1 27 12.8 50.6 37 58 66.3 5.74 31.6-26 64.2-58 54.6-17-2.02-33.1-9.08-46.9-19z" fill="#f92673" stroke="#000" stroke-width="6"/>
      <path d="m241 372c-24-20.6-39.9-57.5-25.6-87.8 15-27.9 53.7-26.5 78.3-13.3 29.5 15.4 53.4 45.2 57.7 78.6 1.77 32.7-34.5 61.5-65.5 47.8-16.9-4.21-32.3-13.4-44.9-25.2z" fill="#f92673" stroke="#000" stroke-width="6"/>
      <path d="m31.9 44.1c-16.1-10.8-12.8-44.6 11.4-37.8 22.6 1.08 40.5 43.6 11.8 48.1-8.73 0.166-17.2-4.14-23.3-10.3z" fill="#f92673" stroke="#000" stroke-width="6"/>
      <path d="m63.6 128c-22.2-21.5-35.5-59.8-16.9-87.4 19.4-24.7 57.4-17.2 79.7-0.623 23.2 17 41.2 44.1 42.9 73.3-0.292 31-36.3 56-64.8 41.3-15.7-4.97-29.7-14.6-40.9-26.5z" fill="#f92673" stroke="#000" stroke-width="6"/>
      <path d="m131 83.2c-17.9-14.6-18.9-56 10.8-55 28.7 0.705 54.6 34.5 42 61.7-12.5 19.5-41.4 7.8-52.8-6.7z" fill="#f92673" stroke="#000" stroke-width="6"/>
      <path d="m284 51.2c-12.9-14.4-1.31-46.4 20.5-33.8 21.6 6.66 28.4 52.3-0.528 49.6-8.5-2.01-15.7-8.3-20-15.8z" fill="#f92673" stroke="#000" stroke-width="6"/>
      <path d="m46.9 257c-11.8-21.2 20.8-30.7 24.7-8.29 8.63 20.5-18.6 29.6-24.7 8.29z" fill="#f92673" stroke="#000" stroke-width="6"/>
      <path d="m158 361c-12.2-29.6-9.16-71.6 19.8-90.3 28.7-15.6 61.8 7.31 76.2 32.3 15.1 25.8 21.1 59 10.7 87.5-13 29.4-57.6 38.4-78.6 12.6-12.9-11.2-22.3-26.1-28-42.1z" fill="#f92673" stroke="#000" stroke-width="6"/>
      <path d="m187 107c-9.23-17.7 4.35-51 27.5-39.8 23 10.7 31.9 48.6 9.95 64.4-16.8 8.3-33.3-9.84-37.5-24.6z" fill="#f92673" stroke="#000" stroke-width="6"/>
      <path d="m-54.3 287c-9.24-30-2.35-70.8 27.7-86.4 29.5-12.6 59.7 12.9 71.5 38.6 12.4 26.6 15.2 59.7 2.36 86.5-15.4 27.5-59.9 32.3-78.1 5.04-11.6-12.2-19.4-27.6-23.5-43.8z" fill="#f92673" stroke="#000" stroke-width="6"/>
      <path d="m113 140c-5.67-32.8 6.22-73.4 38.2-88.4 30.2-12.4 60 13.4 71.5 39.7 14.5 31.7 13.7 70.6-2.75 101-18.2 28.9-66.6 31.7-85.2 1.69-11.6-16-19.5-34.6-21.8-54.3z" fill="#f92673" stroke="#000" stroke-width="6"/>
      <path d="m183 240c-3.42-22.7 7.75-53.4 33.3-56.8 26.1-0.287 41.9 28.5 42.7 51.8 0.873 20.5-6.32 48.1-28.8 54-22.3 3.81-41.9-15.8-45.1-36.9-1.05-3.96-1.76-8-2.15-12.1z" fill="#f92673" stroke="#000" stroke-width="6"/>
      <path d="m281 202c-1.33-26.4 13.7-59.3 42.5-63.2 28.6-0.996 45.9 30.2 47.3 55.6 1.29 23.1-4.82 50-24 64.7-20.8 13.5-52.5 1.42-58.7-22.7-4.86-10.7-7.12-22.6-7.13-34.3z" fill="#f92673" stroke="#000" stroke-width="6"/>
      <path d="m274 44.8c-0.528-22.4 14-50.6 39.1-50.8 25.3 2.91 37 32.6 35 55.2-1.66 19.9-12 45.7-34.4 48.7-22 0.951-38.5-20.4-39-41.1-0.53-3.95-0.725-7.95-0.601-11.9z" fill="#f92673" stroke="#000" stroke-width="6"/>
      <path d="m301 145c-2.05-20.2 27.5-40.2 38.3-16.1 14.2 19-8.18 62-31 41.8-5.98-6.95-8.2-16.7-7.24-25.7z" fill="#f92673" stroke="#000" stroke-width="6"/>
      <path d="m259 177c2.9-21.6 21.2-46.5 45.3-42.9 23.8 6.64 30.6 37 25.2 58.4-4.71 19.5-19.6 44-42.7 41.3-21.3-4.12-31.9-27.5-28.9-47.5 0.178-3.1 0.564-6.19 1.14-9.24z" fill="#f92673" stroke="#000" stroke-width="6"/>
      <path d="m312 245c1.66-19.1 29.7-38.9 42.8-18 13.1 20.4 0.854 55.7-25 57.2-17.8-1.88-21.9-25-17.8-39.1z" fill="#f92673" stroke="#000" stroke-width="6"/>
      <path d="m165-6.26c2.43-20.6 33.5-41.3 46.9-18.1 13.5 22.6-0.98 60.4-29.1 61.2-19.3-2.66-22.9-27.9-17.9-43.1z" fill="#f92673" stroke="#000" stroke-width="6"/>
      <path d="m334 348c3.06-18.6 33.3-33.4 41.6-10.6 8.48 20.1-6.94 50.8-30.8 47.4-14.6-4.99-15.5-24.6-10.9-36.8z" fill="#f92673" stroke="#000" stroke-width="6"/>
      <path d="m323 32.2c6.25-20.3 32.1-41.4 52.5-26.4 24.9 25.8 5.72 76-28.8 81.7-27.8 0.705-33.5-35.4-23.7-55.3z" fill="#f92673" stroke="#000" stroke-width="6"/>
      <path d="m296 172c4.62-18.6 35.5-33.8 45.1-11.1 9.79 22.2-7.86 55.1-33.7 52.6-17.3-4.65-17.8-28.1-11.4-41.4z" fill="#f92673" stroke="#000" stroke-width="6"/>
      <path d="m341 162c14.4-23.6 46.7-43.1 73.8-29.6 24.4 15.1 22.1 50.4 9.84 72.8-11.4 20.5-30.3 39.8-54.1 44.3-25.6 3.42-51.2-21.7-44.3-47.6 1.25-14.3 6.74-28 14.7-39.8z" fill="#f92673" stroke="#000" stroke-width="6"/>
      <path d="m254 289c12-19.9 52.2-29.5 59.3-0.943 6.45 30.4-23 63.4-54 59-25.8-7.68-20.3-42.6-5.28-58.1z" fill="#f92673" stroke="#000" stroke-width="6"/>
      <path d="m-23.3 175c14-16 44.5-25.5 59.3-5.57 13 26-8.4 57-33.5 66-19.7 10.5-47.2-3.95-42.4-28.1 0.626-12.8 7.85-23.5 16.6-32.3z" fill="#f92673" stroke="#000" stroke-width="6"/>
      <path d="m61.2 87.6c25.3-21.6 66.3-32 95.5-12.1 26 19.7 18.9 58.5 2.28 81.8-19.9 28.6-53.8 47.7-88.6 49.2-34.2-0.958-61.2-41.2-44.8-72.5 7.85-18.1 19.8-34.4 35.6-46.4z" fill="#f92673" stroke="#000" stroke-width="6"/>
      <path d="m230 93.2c22.1-15.6 58.7-20.6 77.8 2.07 16 23 0.262 53.9-19.5 69.2-18.2 14-42.7 24-65.8 18.8-24.3-6.86-37.5-39.4-21.3-60 6.68-12.3 16.9-22.5 28.7-30z" fill="#f92673" stroke="#000" stroke-width="6"/>
      <path d="m325 163c21.6-14.3 56.7-17.9 74.3 4.36 15.1 23.6-2.58 53.6-23.1 67.4-18.8 12.6-44.4 20.8-66.3 12-21.7-10.8-27.3-43.4-10.1-60.7 6.6-9.42 15.4-17.2 25.3-23.1z" fill="#f92673" stroke="#000" stroke-width="6"/>
      <path d="m268 328c21.8-11.6 55.5-11.9 70.2 10.8 12.2 23.7-7.27 50.7-28.1 62-19 10.3-44.1 15.8-64.1 5.43-21.4-13.3-21.3-46.9-1.41-61.6 6.65-6.94 14.7-12.5 23.3-16.6z" fill="#f92673" stroke="#000" stroke-width="6"/>
      <path d="m132 68.7c16.4-9.9 49 1.16 39.7 24-8.78 22.6-44.5 33.4-61 13.4-8.95-15.5 7.35-32.5 21.2-37.4z" fill="#f92673" stroke="#000" stroke-width="6"/>
      <path d="m236 96.7c24.4-10.2 60.4-7.17 73.9 18.6 10.6 26.6-12.9 53.4-36.3 63.3-21.3 9.05-48.7 12.4-69-0.649-19.8-15-19.1-48.9 1.49-62.9 8.45-8.21 18.8-14.3 29.9-18.3z" fill="#f92673" stroke="#000" stroke-width="6"/>
      <path d="m335 191c30.1-11.3 70.8-7.4 90.9 20.2 17.5 27.1-2.75 60.9-26.5 76.4-27.3 18.4-63.5 24.4-94.9 14.5-32.4-12.5-42.6-61.6-13.9-83.4 12-13 27.7-22.2 44.5-27.7z" fill="#f92673" stroke="#000" stroke-width="6"/>
      <path d="m202 258c30.9-8.44 72.2-0.119 87 31 11.8 30.4-15 60.3-41.6 71.5-27.5 11.8-61.2 13.5-88.1-0.375-27.5-16.6-30.9-62-2.63-79.6 12.7-11.4 28.7-18.8 45.3-22.6z" fill="#f92673" stroke="#000" stroke-width="6"/>
      <path d="m148 174c17-6.88 41.9 13.8 23.6 29.2-12.9 17.2-55.9 8.55-44.1-16.4 4.54-6.95 12.5-11.3 20.5-12.8z" fill="#f92673" stroke="#000" stroke-width="6"/>
      <path d="m211 171c17.1-4.21 35.6 20.2 15.4 30.1-18.4 16.4-57-12.5-27.6-27.2 3.84-1.75 8.03-2.74 12.3-2.82z" fill="#f92673" stroke="#000" stroke-width="6"/>
      <path d="m130 35c24.7-1.24 55.3 12.8 58.9 39.7 0.927 26.7-28.2 42.8-51.8 44.1-21.6 1.21-46.6-4.51-60.3-22.4-13.7-21.1 0.717-51.6 25-56.4 8.97-3.45 18.6-5.06 28.2-5.07z" fill="#f92673" stroke="#000" stroke-width="6"/>
      <path d="m216 329c30.8-1.12 16.9 38.2-7.52 27-20.9-5.55-12-29.6 7.52-27z" fill="#f92673" stroke="#000" stroke-width="6"/>
      <path d="m385 58.5c23 3.82 46.6 37.7 22.7 54.8-25.9 17.2-67.4 1.95-74.8-28.5-2.37-26.8 32.2-34.6 52.1-26.3z" fill="#f92673" stroke="#000" stroke-width="6"/>
      <path d="m116 83.8c26.2 8.06 52.3 33.1 48.8 62.4-5.88 28.8-41.3 37.5-66.6 32.1-24.6-5.29-50-19.6-61.1-43-9.88-24.4 8.5-56.1 35.8-55.9 14.4-2.39 29.4-0.443 43.1 4.47z" fill="#f92673" stroke="#000" stroke-width="6"/>
      <path d="m356 12c18.7 9.93 34.6 39.3 16.1 56.5-30.1 19.6-75.7-8.62-74.9-43.6 4.52-27.4 41-26.3 58.8-12.9z" fill="#f92673" stroke="#000" stroke-width="6"/>
      <path d="m165 302c22.2 15.5 39.3 48.2 24.4 73.9-16.3 22.9-50.6 18.5-71.7 5.13-19.4-12.4-37-32.1-40-55.5-1.78-25.2 24.4-48.6 49.2-40.4 13.9 2.1 26.9 8.31 38 16.9z" fill="#f92673" stroke="#000" stroke-width="6"/>
      <path d="m148 195c17.3 12.4 29.5 41.9 11.1 58.5-24.6 15.4-57.6-2.99-68.8-27.1-12.3-18.7-0.504-47.3 24-44.9 12.8-0.581 24.1 5.6 33.7 13.5z" fill="#f92673" stroke="#000" stroke-width="6"/>
      <path d="m314 96c25 20 42.5 58.3 26.1 88.6-17.7 27.5-57.6 23.3-82.3 8.4-25.7-15.3-46.9-41.5-51.5-71.5-2.74-32 32-61.4 62.8-48.9 16.7 3.61 32.1 12.2 44.9 23.4z" fill="#f92673" stroke="#000" stroke-width="6"/>
      <path d="m286 186c17.9 16.2 29.3 47 13.3 68.1-17.6 18.9-48.5 10.2-65.8-4.86-17.2-14.9-31.6-39.3-25.3-62.6 8.88-22.7 40.4-28.6 59.1-14.5 6.89 3.64 13.2 8.39 18.7 13.9z" fill="#f92673" stroke="#000" stroke-width="6"/>
      <path d="m97.5 164c18.8 15.4-8.07 36.2-19.9 16.8-15.6-15.9 6.41-34.4 19.9-16.8z" fill="#f92673" stroke="#000" stroke-width="6"/>
      <path d="m149 145c15.7 13.6 15.3 50.9-11.4 49-26.3-1.51-49.4-34.8-34.3-58.5 13-14.4 35.9-3.23 45.7 9.44z" fill="#f92673" stroke="#000" stroke-width="6"/>
      <path d="m166 141c11.5 18.5 13.4 49.3-7.52 61.9-22.6 10.1-47.1-9.01-56.6-29-8.78-18-12.9-46.4 6.57-59 19-10.4 42.2 0.844 52.6 18.2 1.84 2.5 3.51 5.13 5.01 7.85z" fill="#f92673" stroke="#000" stroke-width="6"/>
      <path d="m339 4.71c12.3 19.7 2.54 59.9-26.1 53.3-30-8.05-46.1-49.3-28.1-74.9 18.6-19.5 47.2 1.26 54.1 21.7z" fill="#f92673" stroke="#000" stroke-width="6"/>
      <path d="m179 309c10.8 19.9-1.3 58.2-28.6 49.8-29.3-9.85-42.8-54.2-19.6-76.4 19.5-14 42.8 8.26 48.2 26.5z" fill="#f92673" stroke="#000" stroke-width="6"/>
      <path d="m196-15c8.99 20.4-8.28 56.4-33.4 42.6-24.4-13.2-31.8-53.6-9.1-71.5 19.3-11.3 39 11.4 42.5 28.9z" fill="#f92673" stroke="#000" stroke-width="6"/>
      <path d="m70 86.1c6.43 23.2-0.451 55.4-25.3 64.6-25 6.52-46.4-17.4-52.9-39.4-6.51-21.8-5.64-50.1 12.2-66.4 19.6-14.4 49.4-2.48 57.7 19.4 3.87 6.77 6.64 14.1 8.35 21.8z" fill="#f92673" stroke="#000" stroke-width="6"/>
      <path d="m83.5 164c7.97 21.7-12.2 57.8-37.3 41.9-24.4-15.2-29.4-57.4-4.75-74.5 20.7-10.4 39.6 14.4 42 32.6z" fill="#f92673" stroke="#000" stroke-width="6"/>
      <path d="m407 269c4.94 20.6-6.56 51.9-31.8 49.5-34.6-9.56-43.6-62.5-16.8-85 23.6-14.8 46.9 13.4 48.6 35.5z" fill="#f92673" stroke="#000" stroke-width="6"/>
     </g>
   </g>
  </g>
 </g>
</svg>
